<svg width="16" height="16" viewBox="0 0 16 16" fill="none" xmlns="http://www.w3.org/2000/svg">
<g id="icon_list">
<g id="Union">
<path d="M1 14C1 13.4477 1.44772 13 2 13H7C7.55228 13 8 13.4477 8 14C8 14.5523 7.55228 15 7 15H2C1.44772 15 1 14.5523 1 14Z" fill="#212121"/>
<path d="M1 2C1 1.44772 1.44772 1 2 1H14C14.5523 1 15 1.44772 15 2C15 2.55228 14.5523 3 14 3H2C1.44772 3 1 2.55228 1 2Z" fill="#212121"/>
<path d="M1 8C1 7.44772 1.44772 7 2 7H14C14.5523 7 15 7.44772 15 8C15 8.55228 14.5523 9 14 9H2C1.44772 9 1 8.55228 1 8Z" fill="#212121"/>
</g>
</g>
</svg>
